<?xml version="1.0" encoding="UTF-8" standalone="no"?>
<!-- Created with Inkscape (http://www.inkscape.org/) -->

<svg
   width="210mm"
   height="297mm"
   viewBox="0 0 210 297"
   version="1.1"
   id="svg1"
   xml:space="preserve"
   inkscape:export-filename="位图.svg"
   inkscape:export-xdpi="96"
   inkscape:export-ydpi="96"
   xmlns:inkscape="http://www.inkscape.org/namespaces/inkscape"
   xmlns:sodipodi="http://sodipodi.sourceforge.net/DTD/sodipodi-0.dtd"
   xmlns="http://www.w3.org/2000/svg"
   xmlns:svg="http://www.w3.org/2000/svg"><sodipodi:namedview
     id="namedview1"
     pagecolor="#ffffff"
     bordercolor="#000000"
     borderopacity="0.25"
     inkscape:showpageshadow="2"
     inkscape:pageopacity="0.0"
     inkscape:pagecheckerboard="0"
     inkscape:deskcolor="#d1d1d1"
     inkscape:document-units="mm"><inkscape:page
       x="0"
       y="0"
       width="210"
       height="297"
       id="page2"
       margin="0"
       bleed="0" /></sodipodi:namedview><defs
     id="defs1" /><g
     inkscape:label="图层 1"
     inkscape:groupmode="layer"
     id="layer1"><g
       id="g7"><path
         style="fill:#333333;fill-opacity:1"
         d="m 93.080029,180.05967 c -1.730519,-1.05516 -1.666593,-0.31138 -1.665502,-19.3783 9.54e-4,-16.6691 0.01917,-17.30702 0.517466,-18.12426 0.971615,-1.5935 1.365509,-1.66649 8.993407,-1.66649 h 6.8923 v -6.8923 c 0,-7.6279 0.073,-8.02179 1.6665,-8.99341 0.81743,-0.49842 1.45642,-0.51651 18.27832,-0.51746 17.08387,-9.7e-4 17.44867,0.01 18.30454,0.53872 1.75228,1.08297 1.72939,0.80708 1.6456,19.8332 -0.0716,16.25624 -0.099,17.10078 -0.57748,17.80676 -0.97565,1.4395 -1.376,1.50783 -8.83561,1.50783 h -6.85066 l -0.17313,4.56406 c -0.0952,2.51023 -0.17349,5.67678 -0.17393,7.03678 -9e-4,2.73552 -0.32343,3.61717 -1.59885,4.37059 -0.65823,0.38882 -2.50049,0.43263 -18.15424,0.43174 -16.812388,-9.5e-4 -17.451304,-0.0191 -18.268731,-0.51746 z m 31.078211,-19.25915 -0.0687,-12.89844 h -12.83229 c -10.10356,0 -12.826667,0.0703 -12.805835,0.33073 0.01455,0.1819 0.04432,5.9862 0.06615,12.89844 l 0.03969,12.56771 h 12.834815 12.8348 z m 16.4678,-16.47031 v -12.96459 h -12.83229 -12.8323 v 4.7625 4.7625 h 6.91409 c 9.87362,0 9.32434,-0.53982 9.42274,9.26042 0.0373,3.71078 0.0677,6.83617 0.0675,6.94531 -1.1e-4,0.10914 2.08339,0.19844 4.63001,0.19844 h 4.63021 z"
         id="path7" /></g></g></svg>
